<?xml version="1.0" encoding="utf-8"?>
<svg id="Component_42_13" data-name="Component 42 – 13" xmlns="http://www.w3.org/2000/svg" width="156.086" height="36.638" viewBox="0 0 156.086 36.638">
  <path id="Path_7849" data-name="Path 7849" d="M110.931,36.551V22.3H95.01V.011h7.966V14.33h7.966V.011h7.966V36.54h-7.977Zm28.672.022V22.3H123.671V0h23.888V36.572Zm0-28.606h-7.966v6.375H139.6" transform="translate(8.528)" fill="#9e2521"/>
  <path id="Path_7850" data-name="Path 7850" d="M0,36.593V.01H7.966V28.671H23.9v7.923H0Zm57.343,0-3.182-7.923H39.82l-3.182,7.966H28.672L43,.021h7.966L65.309,36.6H57.343ZM46.99,11.147,43.013,22.3h7.966Zm43.8,14.341c0-3.182-3.182-3.182-4.784-3.182H78.038v6.375H86c1.6-.011,4.784-.011,4.784-3.193m7.966,0c0,7.683-5.307,11.1-12.9,11.1H70.083V.01h15.91c6.887,0,11.159,3.269,11.159,9.546a8.268,8.268,0,0,1-3.662,7.236,9.651,9.651,0,0,1,5.264,8.7M89.2,11.147a3.117,3.117,0,0,0-3.182-3.182H78.049V14.34h7.966A3.12,3.12,0,0,0,89.2,11.147" transform="translate(0 0.001)" fill="#232832"/>
</svg>
